<?xml version="1.0" standalone="no"?><svg xmlns="http://www.w3.org/2000/svg" viewBox="0 0 1440 320"><path fill="#0099ff" fill-opacity="1" d="M0,128L26.7,133.3C53.3,139,107,149,160,165.3C213.3,181,267,203,320,176C373.3,149,427,75,480,90.7C533.3,107,587,213,640,245.3C693.3,277,747,235,800,197.3C853.3,160,907,128,960,106.7C1013.3,85,1067,75,1120,85.3C1173.3,96,1227,128,1280,165.3C1333.3,203,1387,245,1413,266.7L1440,288L1440,0L1413.3,0C1386.7,0,1333,0,1280,0C1226.7,0,1173,0,1120,0C1066.7,0,1013,0,960,0C906.7,0,853,0,800,0C746.7,0,693,0,640,0C586.7,0,533,0,480,0C426.7,0,373,0,320,0C266.7,0,213,0,160,0C106.7,0,53,0,27,0L0,0Z"></path></svg>